<svg width="138" height="29" viewBox="0 0 138 29" fill="none" xmlns="http://www.w3.org/2000/svg">
<path opacity="0.8" d="M7.5756 24.1474V27.9624H7.07792V24.1474H7.5756ZM8.80224 24.1474V24.5618H5.85498V24.1474H8.80224ZM17.2703 25.9346V26.1752C17.2703 26.4619 17.2352 26.7191 17.163 26.9448C17.0908 27.1724 16.9891 27.3648 16.854 27.5239C16.719 27.683 16.558 27.8033 16.3693 27.8884C16.1824 27.9716 15.9734 28.0142 15.7402 28.0142C15.5071 28.0142 15.3073 27.9716 15.1186 27.8884C14.9317 27.8051 14.7689 27.683 14.632 27.5239C14.4951 27.3648 14.3896 27.1724 14.3156 26.9448C14.2398 26.7172 14.2028 26.4619 14.2028 26.1752V25.9346C14.2028 25.6479 14.2398 25.3925 14.3138 25.1668C14.3896 24.9393 14.4951 24.7468 14.6302 24.5877C14.7671 24.4268 14.928 24.3047 15.1149 24.2214C15.3036 24.1382 15.5108 24.0956 15.7365 24.0956C15.9623 24.0956 16.1787 24.1382 16.3656 24.2214C16.5543 24.3047 16.7153 24.4268 16.8503 24.5877C16.9872 24.7468 17.0908 24.9393 17.1611 25.1668C17.2352 25.3925 17.2722 25.6479 17.2722 25.9346H17.2703ZM16.7689 26.1752V25.9291C16.7689 25.7015 16.7449 25.5017 16.6986 25.3259C16.6524 25.152 16.5858 25.004 16.497 24.8856C16.4081 24.7672 16.299 24.6765 16.1695 24.6155C16.0418 24.5544 15.8975 24.523 15.7347 24.523C15.5719 24.523 15.435 24.5544 15.3073 24.6155C15.1815 24.6765 15.0723 24.7672 14.9817 24.8856C14.8929 25.004 14.8244 25.1502 14.7745 25.3259C14.7264 25.4999 14.7005 25.7015 14.7005 25.9291V26.1752C14.7005 26.4046 14.7245 26.6062 14.7745 26.7838C14.8226 26.9578 14.8929 27.1058 14.9835 27.226C15.076 27.3444 15.1852 27.4351 15.311 27.4961C15.4387 27.5572 15.5811 27.5887 15.7384 27.5887C15.8957 27.5887 16.0492 27.5572 16.175 27.4961C16.3027 27.4351 16.41 27.3444 16.497 27.226C16.5858 27.1058 16.6542 26.9578 16.6986 26.7838C16.7449 26.6081 16.7671 26.4046 16.7671 26.1752H16.7689ZM25.8827 26.0623V27.4591C25.8364 27.5294 25.7606 27.6072 25.657 27.6941C25.5534 27.7792 25.4109 27.8551 25.2296 27.9198C25.0501 27.9827 24.817 28.0142 24.5321 28.0142C24.299 28.0142 24.0862 27.9735 23.8901 27.8939C23.6958 27.8125 23.5275 27.6923 23.385 27.5369C23.2444 27.3796 23.1334 27.189 23.0557 26.9652C22.978 26.7394 22.941 26.4841 22.941 26.1992V25.9032C22.941 25.6183 22.9743 25.3648 23.0409 25.1409C23.1093 24.9171 23.2092 24.7284 23.3387 24.5729C23.4701 24.4157 23.6311 24.2973 23.8216 24.2159C24.0122 24.1345 24.2305 24.0938 24.4766 24.0938C24.7689 24.0938 25.0113 24.1437 25.2074 24.2455C25.4053 24.3454 25.5589 24.4823 25.6681 24.6599C25.7791 24.8357 25.8512 25.0373 25.8827 25.263H25.3776C25.3554 25.1243 25.3091 25.0003 25.2407 24.8856C25.1741 24.7727 25.0797 24.6802 24.9558 24.6136C24.8318 24.5433 24.6727 24.5082 24.4766 24.5082C24.3008 24.5082 24.1473 24.5396 24.0177 24.6044C23.8882 24.6691 23.7828 24.7617 23.6977 24.8819C23.6144 25.0022 23.5515 25.1483 23.509 25.3204C23.4683 25.4906 23.4498 25.6849 23.4498 25.8995V26.2011C23.4498 26.4212 23.4757 26.6173 23.5256 26.7912C23.5774 26.9633 23.6514 27.1113 23.7476 27.2334C23.8438 27.3537 23.9585 27.4462 24.0918 27.5091C24.2268 27.572 24.3748 27.6035 24.5376 27.6035C24.7171 27.6035 24.8633 27.5887 24.9743 27.5591C25.0853 27.5276 25.1741 27.4906 25.237 27.4499C25.2999 27.4055 25.348 27.3648 25.3813 27.3259V26.4712H24.4988V26.0623H25.8845H25.8827ZM34.1824 27.5498V27.9605H32.162V27.5498H34.1824ZM32.2656 24.1474V27.9624H31.7606V24.1474H32.2656ZM33.916 25.7866V26.1974H32.1639V25.7866H33.916ZM34.1565 24.1474V24.5618H32.162V24.1474H34.1565ZM41.3091 24.1474V27.9624H40.8114V24.1474H41.3091ZM42.5357 24.1474V24.5618H39.5885V24.1474H42.5357ZM50.6319 25.7866V26.1974H48.5672V25.7866H50.6319ZM48.6467 24.1474V27.9624H48.1417V24.1474H48.6467ZM51.0723 24.1474V27.9624H50.569V24.1474H51.0723ZM59.433 27.5498V27.9605H57.4127V27.5498H59.433ZM57.5163 24.1474V27.9624H57.0112V24.1474H57.5163ZM59.1666 25.7866V26.1974H57.4145V25.7866H59.1666ZM59.4071 24.1474V24.5618H57.4127V24.1474H59.4071ZM65.0981 24.1474H66.3618C66.6485 24.1474 66.8891 24.1918 67.087 24.2788C67.2868 24.3657 67.4367 24.4952 67.5403 24.6673C67.6458 24.8375 67.6976 25.0447 67.6976 25.2926C67.6976 25.4666 67.6624 25.6275 67.5903 25.7718C67.52 25.9143 67.42 26.0364 67.2868 26.1382C67.1555 26.2381 66.9982 26.3121 66.815 26.3602L66.6744 26.4157H65.4867L65.4811 26.0049H66.3766C66.5579 26.0049 66.7096 25.9735 66.8298 25.9106C66.9501 25.8458 67.0408 25.7589 67.1018 25.6516C67.1629 25.5424 67.1943 25.424 67.1943 25.2926C67.1943 25.1465 67.1647 25.017 67.1074 24.9078C67.05 24.7987 66.9594 24.7135 66.8354 24.6543C66.7133 24.5933 66.556 24.5618 66.3618 24.5618H65.6051V27.9624H65.1V24.1474H65.0981ZM67.3275 27.9624L66.4006 26.2325H66.9279L67.8678 27.9309V27.9624H67.3275ZM80.815 26.8098L81.5717 24.1474H81.938L81.7253 25.1816L80.9112 27.9605H80.5468L80.8132 26.8079L80.815 26.8098ZM80.0324 24.1474L80.6356 26.7561L80.8169 27.9605H80.4561L79.531 24.1456H80.0343L80.0324 24.1474ZM82.9186 26.7542L83.5088 24.1474H84.0139L83.0925 27.9624H82.7318L82.9205 26.7542H82.9186ZM81.9936 24.1474L82.7299 26.8098L82.9963 27.9624H82.6318L81.8455 25.1835L81.6309 24.1493H81.9917L81.9936 24.1474ZM92.0361 27.5498V27.9605H90.0157V27.5498H92.0361ZM90.1193 24.1474V27.9624H89.6143V24.1474H90.1193ZM91.7697 25.7866V26.1974H90.0176V25.7866H91.7697ZM92.0102 24.1474V24.5618H90.0157V24.1474H92.0102ZM106.889 26.0623V27.4591C106.841 27.5294 106.767 27.6072 106.663 27.6941C106.56 27.7792 106.417 27.8551 106.236 27.9198C106.056 27.9827 105.823 28.0142 105.538 28.0142C105.305 28.0142 105.092 27.9735 104.896 27.8939C104.702 27.8125 104.534 27.6923 104.391 27.5369C104.249 27.3796 104.14 27.189 104.062 26.9652C103.984 26.7394 103.947 26.4841 103.947 26.1992V25.9032C103.947 25.6183 103.981 25.3648 104.047 25.1409C104.116 24.9171 104.216 24.7284 104.345 24.5729C104.476 24.4157 104.637 24.2973 104.826 24.2159C105.017 24.1345 105.235 24.0938 105.481 24.0938C105.773 24.0938 106.016 24.1437 106.212 24.2455C106.41 24.3454 106.563 24.4823 106.673 24.6599C106.784 24.8357 106.856 25.0373 106.887 25.263H106.382C106.36 25.1243 106.314 25.0003 106.245 24.8856C106.179 24.7727 106.084 24.6802 105.96 24.6136C105.836 24.5433 105.677 24.5082 105.481 24.5082C105.305 24.5082 105.152 24.5396 105.022 24.6044C104.893 24.6691 104.787 24.7617 104.702 24.8819C104.619 25.0022 104.556 25.1483 104.513 25.3204C104.473 25.4906 104.454 25.6849 104.454 25.8995V26.2011C104.454 26.4212 104.48 26.6173 104.53 26.7912C104.582 26.9633 104.656 27.1113 104.752 27.2334C104.848 27.3537 104.963 27.4462 105.096 27.5091C105.231 27.572 105.379 27.6035 105.542 27.6035C105.722 27.6035 105.868 27.5887 105.979 27.5591C106.09 27.5276 106.179 27.4906 106.241 27.4499C106.304 27.4055 106.352 27.3648 106.386 27.3259V26.4712H105.503V26.0623H106.889ZM112.765 24.1474H114.029C114.315 24.1474 114.556 24.1918 114.754 24.2788C114.954 24.3657 115.104 24.4952 115.207 24.6673C115.313 24.8375 115.364 25.0447 115.364 25.2926C115.364 25.4666 115.329 25.6275 115.257 25.7718C115.187 25.9143 115.085 26.0364 114.954 26.1382C114.822 26.2381 114.665 26.3121 114.482 26.3602L114.341 26.4157H113.154L113.148 26.0049H114.043C114.225 26.0049 114.376 25.9735 114.497 25.9106C114.617 25.8458 114.708 25.7589 114.769 25.6516C114.83 25.5424 114.861 25.424 114.861 25.2926C114.861 25.1465 114.832 25.017 114.774 24.9078C114.717 24.7987 114.626 24.7135 114.502 24.6543C114.38 24.5933 114.221 24.5618 114.029 24.5618H113.272V27.9624H112.767V24.1474H112.765ZM114.994 27.9624L114.067 26.2325H114.595L115.535 27.9309V27.9624H114.994ZM124.045 25.9346V26.1752C124.045 26.4619 124.01 26.7191 123.938 26.9448C123.866 27.1724 123.764 27.3648 123.629 27.5239C123.494 27.683 123.333 27.8033 123.144 27.8884C122.957 27.9716 122.748 28.0142 122.515 28.0142C122.282 28.0142 122.082 27.9716 121.894 27.8884C121.707 27.8051 121.544 27.683 121.407 27.5239C121.27 27.3648 121.165 27.1724 121.091 26.9448C121.015 26.7172 120.978 26.4619 120.978 26.1752V25.9346C120.978 25.6479 121.015 25.3925 121.087 25.1668C121.163 24.9393 121.268 24.7468 121.403 24.5877C121.54 24.4268 121.701 24.3047 121.888 24.2214C122.077 24.1382 122.284 24.0956 122.51 24.0956C122.735 24.0956 122.952 24.1382 123.139 24.2214C123.327 24.3047 123.488 24.4268 123.623 24.5877C123.76 24.7468 123.864 24.9393 123.936 25.1668C124.01 25.3925 124.045 25.6479 124.045 25.9346ZM123.546 26.1752V25.9291C123.546 25.7015 123.522 25.5017 123.475 25.3259C123.431 25.152 123.363 25.004 123.274 24.8856C123.185 24.7672 123.076 24.6765 122.946 24.6155C122.819 24.5544 122.674 24.523 122.511 24.523C122.349 24.523 122.212 24.5544 122.084 24.6155C121.958 24.6765 121.849 24.7672 121.758 24.8856C121.67 25.004 121.601 25.1502 121.551 25.3259C121.503 25.4999 121.477 25.7015 121.477 25.9291V26.1752C121.477 26.4046 121.501 26.6062 121.551 26.7838C121.599 26.9578 121.67 27.1058 121.76 27.226C121.853 27.3444 121.962 27.4351 122.088 27.4961C122.215 27.5572 122.358 27.5887 122.515 27.5887C122.672 27.5887 122.826 27.5572 122.952 27.4961C123.079 27.4351 123.187 27.3444 123.274 27.226C123.363 27.1058 123.431 26.9578 123.475 26.7838C123.52 26.6081 123.544 26.4046 123.544 26.1752H123.546ZM130.845 26.8098L131.601 24.1474H131.968L131.755 25.1816L130.941 27.9605H130.576L130.843 26.8079L130.845 26.8098ZM130.062 24.1474L130.665 26.7561L130.846 27.9605H130.486L129.561 24.1456H130.064L130.062 24.1474ZM132.948 26.7542L133.538 24.1474H134.043L133.122 27.9624H132.761L132.95 26.7542H132.948ZM132.023 24.1474L132.759 26.8098L133.026 27.9624H132.661L131.875 25.1835L131.66 24.1493H132.021L132.023 24.1474Z" fill="#00213D"/>
<path d="M108.578 0.0078125V18.1484H106.104V0.0078125H108.578ZM113.879 0.0078125V18.1484H111.405V0.0078125H113.879ZM115.903 13.7266C115.903 10.7238 117.882 9.22148 121.843 9.22148C123.116 9.22148 124.391 9.31398 125.664 9.50085V8.12065C125.664 6.43703 124.349 5.59707 121.718 5.59707C120.212 5.59707 118.669 5.83019 117.087 6.29457V4.20207C118.667 3.73768 120.212 3.50456 121.718 3.50456C126.069 3.50456 128.245 5.01983 128.245 8.0522V18.1502H126.794L125.903 16.6997C124.443 17.6673 122.854 18.1502 121.133 18.1502C117.645 18.1502 115.903 16.6757 115.903 13.7284V13.7266ZM121.843 11.314C119.603 11.314 118.482 12.104 118.482 13.6859C118.482 15.2677 119.364 16.0577 121.131 16.0577C122.898 16.0577 124.428 15.5841 125.664 14.635V11.5952C124.391 11.4083 123.116 11.3158 121.843 11.3158V11.314ZM130.746 18.1484V3.50456H132.489L132.95 5.3732C134.234 4.12806 135.777 3.50456 137.581 3.50456V5.65257C135.832 5.65257 134.415 6.27052 133.327 7.50826V18.1502H130.746V18.1484Z" fill="#2F80ED"/>
<path d="M89.7895 17.1556C88.4093 17.8901 86.8626 18.2545 85.3011 18.2138C83.7395 18.1731 82.2132 17.731 80.8718 16.928C79.5305 16.125 78.4204 14.9872 77.6489 13.6292C76.8774 12.2694 76.4685 10.7337 76.4667 9.17223C76.463 7.60887 76.8644 6.07141 77.6304 4.70971C78.3964 3.34801 79.5009 2.20647 80.8385 1.39612C82.1762 0.587607 83.6988 0.136175 85.2622 0.0899217C86.8237 0.0436683 88.3723 0.400743 89.7543 1.1297L88.5924 3.33876C87.5897 2.81147 86.4685 2.55245 85.3362 2.58575C84.2039 2.61905 83.0994 2.94468 82.1318 3.53117C81.1623 4.11766 80.3612 4.94468 79.8062 5.9308C79.2511 6.91877 78.9606 8.03255 78.9625 9.16483C78.9643 10.2971 79.2604 11.409 79.8191 12.3952C80.3779 13.3813 81.1827 14.2027 82.154 14.7855C83.1253 15.3683 84.2317 15.6884 85.3621 15.718C86.4944 15.7476 87.6156 15.483 88.6146 14.9502L89.7876 17.1556H89.7895Z" fill="#2F80ED"/>
<path d="M97.0049 6.28959C98.7755 6.28959 100.3 7.38857 100.981 8.96488L103.418 7.8289C102.32 5.27387 99.8615 3.49219 97.0031 3.49219C95.9023 3.49219 94.8625 3.75676 93.9337 4.22669L95.1049 6.74102C95.6784 6.4524 96.3222 6.28959 97.0031 6.28959H97.0049Z" fill="#00213D"/>
<path d="M103.419 7.82693L100.983 8.96291C101.227 9.52905 101.364 10.1544 101.364 10.8149C101.364 12.6077 100.359 14.1581 98.9031 14.8907L97.7542 12.4245C97.5266 12.5392 97.2732 12.604 97.0049 12.604C96.3055 12.604 95.7042 12.1692 95.4341 11.5475L93.0289 12.6687C92.7847 12.1026 92.6478 11.4772 92.6478 10.8167C92.6478 9.02396 93.6525 7.47355 95.1085 6.74089L93.9374 4.22656C91.5951 5.41435 89.9818 7.91758 89.9818 10.8167C89.9818 11.8806 90.2019 12.8907 90.5923 13.8029C91.6895 16.3579 94.1483 18.1396 97.0067 18.1396C98.1076 18.1396 99.1473 17.875 100.076 17.4051C102.418 16.2173 104.032 13.7141 104.032 10.8149C104.032 9.75107 103.812 8.74089 103.421 7.82877L103.419 7.82693Z" fill="#2F80ED"/>
<path d="M100.983 8.96435C100.302 7.38804 98.7773 6.28906 97.0067 6.28906C96.3259 6.28906 95.682 6.45187 95.1085 6.7405C93.6524 7.47315 92.6478 9.02171 92.6478 10.8163C92.6478 11.4768 92.7847 12.1022 93.0289 12.6683L95.4341 11.5471C95.3379 11.3233 95.2824 11.0772 95.2824 10.8163C95.2824 10.1077 95.6802 9.49719 96.2556 9.20857C96.4831 9.09387 96.7366 9.02911 97.0049 9.02911C97.7042 9.02911 98.3055 9.46389 98.5756 10.0855C98.6718 10.3094 98.7273 10.5555 98.7273 10.8163C98.7273 11.5249 98.3296 12.1355 97.7542 12.4241L98.9031 14.8903C100.359 14.1577 101.364 12.6091 101.364 10.8145C101.364 10.154 101.227 9.52864 100.983 8.9625V8.96435Z" fill="white"/>
<path d="M98.5758 10.0877C98.3057 9.46419 97.7044 9.03125 97.005 9.03125C96.7368 9.03125 96.4833 9.09786 96.2557 9.21071C95.6803 9.50118 95.2826 10.1099 95.2826 10.8185C95.2826 11.0793 95.3381 11.3273 95.4343 11.5493C95.7044 12.1728 96.3057 12.6057 97.005 12.6057C97.2733 12.6057 97.5268 12.5391 97.7543 12.4262C98.3297 12.1358 98.7275 11.5271 98.7275 10.8185C98.7275 10.5576 98.672 10.3097 98.5758 10.0877Z" fill="#00213D"/>
<path d="M71.4428 4.91247C70.6029 3.98556 69.3374 3.51562 67.6759 3.51562C66.1329 3.51562 64.6343 4.12801 63.2245 5.338C62.5196 4.12801 61.2856 3.51562 59.5502 3.51562C57.8147 3.51562 56.4197 4.11322 55.1949 5.2936L55.1561 3.51562H51.6797V17.9467H55.5909V8.0614C56.453 7.19184 57.3744 6.75151 58.3328 6.75151C58.9304 6.75151 59.3614 6.92357 59.6538 7.2788C59.9498 7.63957 60.0996 8.20201 60.0996 8.94947V17.9467H64.0127V8.0651C64.9266 7.19369 65.885 6.75151 66.8619 6.75151C67.5076 6.75151 67.9942 6.92727 68.3087 7.27694C68.6269 7.63032 68.7897 8.17981 68.7897 8.91062V17.9467H72.7009V9.04382C72.7009 7.22329 72.2772 5.83384 71.4428 4.91247Z" fill="#00213D"/>
<path d="M47.5371 4.71081C46.4658 3.9171 44.8507 3.51562 42.736 3.51562C41.1966 3.51562 39.4649 3.74319 37.587 4.19092L37.4446 4.22422V7.41756L37.6721 7.3639C39.5204 6.92357 41.2244 6.6997 42.7341 6.6997C43.5963 6.6997 44.2457 6.84771 44.6638 7.13818C45.0671 7.4194 45.2632 7.83199 45.2632 8.40183V9.23809C44.3752 9.08453 43.476 9.00682 42.5879 9.00682C40.5269 9.00682 38.9543 9.36945 37.9127 10.0873C36.8488 10.82 36.3086 11.9282 36.3086 13.3842C36.3086 14.8403 36.7637 16.0466 37.6592 16.8088C38.5473 17.5637 39.8868 17.9485 41.6388 17.9485C43.0394 17.9485 44.3456 17.5711 45.526 16.8255L45.6573 17.9485H49.1744V8.33522C49.1744 6.73671 48.6231 5.51747 47.5352 4.71081H47.5371ZM45.2632 14.0244C44.3141 14.6941 43.2743 15.0327 42.1735 15.0327C41.5112 15.0327 41.0116 14.8902 40.6916 14.609C40.3752 14.3315 40.2198 13.9171 40.2198 13.3417C40.2198 12.8218 40.4029 12.4444 40.7767 12.189C41.1689 11.9208 41.7776 11.7857 42.5879 11.7857C43.5315 11.7857 44.4307 11.8653 45.2632 12.0207V14.0225V14.0244Z" fill="#00213D"/>
<path d="M28.0409 3.51562C25.8023 3.51562 24.0946 4.11322 22.966 5.2899C21.8393 6.46474 21.2676 8.24086 21.2676 10.5702C21.2676 12.8995 21.9299 14.868 23.2343 16.0984C24.5349 17.325 26.5035 17.9467 29.0844 17.9467C30.8624 17.9467 32.3961 17.8098 33.6413 17.5415L33.7874 17.51V14.326L33.5673 14.3667C32.1686 14.6312 30.7495 14.7644 29.3508 14.7644C27.9521 14.7644 26.879 14.5258 26.1871 14.054C25.5543 13.6229 25.225 13.0031 25.1825 12.1613H34.4701L34.4923 12.0022C34.5737 11.4175 34.6144 10.8218 34.6144 10.2353C34.6144 8.017 34.0594 6.32412 32.9641 5.20479C31.8688 4.08361 30.2111 3.51562 28.0409 3.51562ZM30.7958 9.3269H25.1973C25.2953 8.46658 25.5673 7.80978 26.0058 7.37315C26.4757 6.90692 27.1603 6.6701 28.0409 6.6701C28.966 6.6701 29.6635 6.89767 30.1149 7.3454C30.5534 7.78018 30.7828 8.44623 30.7958 9.32504V9.3269Z" fill="#00213D"/>
<path d="M11.8163 17.5119L9.30384 14.0503H8.68404C7.81078 14.0503 6.99302 13.808 6.28812 13.3843C4.85056 12.5221 3.88294 10.9107 3.88294 9.06422C3.88294 6.85701 5.26499 4.98653 7.17803 4.32973C7.45185 4.23537 7.73862 4.16691 8.03279 4.12436L8.51013 3.21225L9.50735 1.30105L10.1179 0.131774L10.1827 0.0078125H8.51013V0.0133627C3.79414 0.11142 -0.000488281 4.12436 -0.000488281 9.06422C-0.000488281 14.0041 3.79414 18.0189 8.51013 18.1151V18.1206H12.2604L11.8182 17.5119H11.8163Z" fill="#2F80ED"/>
<path d="M19.4831 8.27956C19.5515 7.87623 19.5904 7.4618 19.5904 7.03627C19.5904 7.03257 19.5904 7.02887 19.5904 7.02702C19.5904 6.08345 19.4091 5.18428 19.0834 4.36282C18.5913 3.11768 17.768 2.05386 16.7264 1.2879C16.1399 0.856822 15.4868 0.52195 14.7837 0.301784C14.3693 0.172275 13.9382 0.0834657 13.4923 0.0390625L12.928 1.11954L12.7745 1.41371L11.3832 4.0779H12.8688C13.6329 4.0853 14.3249 4.39983 14.8337 4.91046C15.0224 5.09918 15.1852 5.31564 15.3184 5.55246C15.5626 5.98724 15.7032 6.48863 15.7032 7.02702C15.7032 7.34709 15.6533 7.65421 15.5608 7.94098C15.2537 8.91045 14.4747 9.65791 13.5034 9.89472C13.2925 9.94653 13.0723 9.97613 12.8466 9.97613H9.6792L11.5515 12.5552L12.2453 13.5117L12.6339 14.0464L12.645 14.0612L13.916 15.8133L15.5885 18.1186H19.4738L16.5191 14.0483L16.1306 13.5136L15.9567 13.2749C16.0048 13.249 16.0511 13.2231 16.0973 13.1972C17.8457 12.1926 19.1186 10.4017 19.4812 8.27956H19.4831Z" fill="#00213D"/>
</svg>
