<svg width="18" height="16" viewBox="0 0 18 16" fill="none" xmlns="http://www.w3.org/2000/svg">
<path d="M10.4371 15.4604L8.21798 12.403H7.67055C6.89925 12.403 6.17697 12.1889 5.55437 11.8147C4.28466 11.0532 3.43001 9.62986 3.43001 7.99901C3.43001 6.04951 4.6507 4.39741 6.34038 3.8173C6.58223 3.73396 6.83552 3.6735 7.09534 3.63591L7.51694 2.83029L8.39773 1.14225L8.93699 0.109488L8.99419 0H7.51694V0.00490215C3.35158 0.0915104 0 3.63591 0 7.99901C0 12.3621 3.35158 15.9081 7.51694 15.9931V15.998H10.8293L10.4387 15.4604H10.4371Z" fill="#0B6AEA"/>
<path d="M17.2086 7.30961C17.2691 6.95338 17.3034 6.58733 17.3034 6.21149C17.3034 6.20822 17.3034 6.20495 17.3034 6.20331C17.3034 5.36991 17.1433 4.57573 16.8557 3.85018C16.421 2.75042 15.6938 1.8108 14.7738 1.13428C14.2558 0.75353 13.6789 0.457757 13.058 0.263297C12.6919 0.148909 12.3112 0.0704688 11.9174 0.03125L11.4189 0.985574L11.2833 1.2454L10.0545 3.59853H11.3667C12.0415 3.60506 12.6527 3.88286 13.1021 4.33388C13.2688 4.50056 13.4126 4.69175 13.5302 4.90092C13.7459 5.28494 13.8701 5.72778 13.8701 6.20331C13.8701 6.48602 13.826 6.75728 13.7443 7.01057C13.473 7.86685 12.7851 8.52703 11.9272 8.7362C11.7409 8.78195 11.5464 8.8081 11.347 8.8081H8.54944L10.2032 11.0861L10.816 11.9309L11.1591 12.4032L11.1689 12.4162L12.2916 13.9637L13.7688 15.9999H17.2005L14.5908 12.4048L14.2476 11.9325L14.094 11.7217C14.1365 11.6989 14.1773 11.676 14.2182 11.6531C15.7624 10.7658 16.8867 9.18395 17.207 7.30961H17.2086Z" fill="#0B6AEA"/>
</svg>
