<svg width="24" height="24" viewBox="0 0 24 24" fill="none" xmlns="http://www.w3.org/2000/svg">
<path d="M6.33337 13.3333V5.33333H17.0377L14.4576 8.94667C14.3772 9.05957 14.334 9.19473 14.334 9.33333C14.334 9.47194 14.3772 9.60709 14.4576 9.72L17.0377 13.3333H6.33337ZM6.33337 14.6667H18.3337C18.4561 14.6666 18.5761 14.6328 18.6806 14.5691C18.785 14.5054 18.8699 14.4141 18.926 14.3053C18.982 14.1965 19.007 14.0744 18.9983 13.9524C18.9896 13.8303 18.9474 13.713 18.8764 13.6133L15.819 9.33333L18.8764 5.05333C18.9474 4.95365 18.9896 4.83635 18.9983 4.71429C19.007 4.59224 18.982 4.47013 18.926 4.36134C18.8699 4.25256 18.785 4.1613 18.6806 4.09757C18.5761 4.03383 18.4561 4.00008 18.3337 4H5.66669C5.48987 4 5.3203 4.07024 5.19527 4.19526C5.07024 4.32029 5 4.48986 5 4.66667V19.3333C5 19.5101 5.07024 19.6797 5.19527 19.8047C5.3203 19.9298 5.48987 20 5.66669 20C5.8435 20 6.01308 19.9298 6.1381 19.8047C6.26313 19.6797 6.33337 19.5101 6.33337 19.3333V14.6667Z" fill="#0B6AEA"/>
</svg>
