<svg width="40" height="40" viewBox="0 0 40 40" fill="none" xmlns="http://www.w3.org/2000/svg">
<ellipse cx="20.0001" cy="20" rx="19.9998" ry="20" fill="#2F80ED"/>
<mask id="mask0_30535_2713" style="mask-type:alpha" maskUnits="userSpaceOnUse" x="0" y="0" width="40" height="40">
<ellipse cx="20.0003" cy="20" rx="19.9998" ry="20" fill="url(#paint0_linear_30535_2713)"/>
</mask>
<g mask="url(#mask0_30535_2713)">
<path d="M21.487 38.4023L22.5563 44.016" stroke="white" stroke-width="0.599993" stroke-linecap="round"/>
<path fill-rule="evenodd" clip-rule="evenodd" d="M17.3356 33.2419C16.2042 32.9677 13.8281 32.8032 13.3755 34.3385C12.923 35.8737 13.5641 36.6231 13.9413 36.8058C11.7726 38.3594 7.71826 42.6727 8.84971 47.4977H19.8815V34.3385L17.3356 33.2419ZM22.4276 33.2419C23.5591 32.9677 25.9352 32.8032 26.3877 34.3385C26.8403 35.8737 26.1992 36.6231 25.822 36.8058C27.9906 38.3594 32.045 42.6727 30.9136 47.4977H19.8818V34.3385L22.4276 33.2419Z" fill="#333333"/>
<path d="M21.4862 39.46L26.2979 36.5195L26.8325 37.5888L21.4862 39.46Z" fill="#1D1D1D"/>
<mask id="mask1_30535_2713" style="mask-type:alpha" maskUnits="userSpaceOnUse" x="8" y="33" width="24" height="15">
<path fill-rule="evenodd" clip-rule="evenodd" d="M17.3358 33.2341C16.2043 32.9599 13.8282 32.7954 13.3757 34.3307C12.9231 35.8659 13.5642 36.6153 13.9414 36.798C11.7728 38.3516 7.71838 42.6649 8.84983 47.4899H19.8816V34.3307L17.3358 33.2341ZM22.4278 33.2341C23.5592 32.9599 25.9353 32.7954 26.3879 34.3307C26.8404 35.8659 26.1993 36.6153 25.8221 36.798C27.9908 38.3516 32.0451 42.6649 30.9137 47.4899H19.8819V34.3307L22.4278 33.2341Z" fill="#333333"/>
</mask>
<g mask="url(#mask1_30535_2713)">
<path d="M18.2775 39.46L13.4658 36.5195L12.9312 37.5888L18.2775 39.46Z" fill="#1D1D1D"/>
</g>
<path d="M18.2796 38.6797L17.2103 44.2934" stroke="white" stroke-width="0.599993" stroke-linecap="round"/>
<path d="M18.7673 28.6253C20.2563 29.4742 21.7068 29.1653 22.6797 28.1042" stroke="#EB5757" stroke-width="0.599993" stroke-linecap="round"/>
<rect x="16.1403" y="26.1172" width="7.48485" height="11.2274" rx="3.74243" fill="#F5B1B1"/>
<path d="M27.3666 19.7068C27.3666 22.069 27.8532 24.2512 29.7725 24.2512C31.6917 24.2512 33.5149 21.5343 33.5149 19.1722C33.5149 16.81 32.761 15.4297 30.8417 15.4297C28.9225 15.4297 27.3666 17.3446 27.3666 19.7068Z" fill="#F5B1B1"/>
<path d="M12.3977 19.7068C12.3977 22.069 11.9111 24.2512 9.99182 24.2512C8.07257 24.2512 6.24939 21.5343 6.24939 19.1722C6.24939 16.81 7.0033 15.4297 8.92255 15.4297C10.8418 15.4297 12.3977 17.3446 12.3977 19.7068Z" fill="#F5B1B1"/>
<rect x="9.19006" y="6.33594" width="21.3853" height="26.1973" rx="10.6926" fill="#FFD9CB"/>
<rect x="19.3479" y="23.4453" width="2.13853" height="3.74247" rx="1.06926" fill="#F5B1B1"/>
<ellipse cx="15.1118" cy="20.2391" rx="1.19998" ry="1.19999" fill="#00213D"/>
<ellipse cx="24.1117" cy="20.2391" rx="1.19998" ry="1.19999" fill="#00213D"/>
<path d="M21.2496 16.875C22.0934 16.875 24.3996 16.875 26.8746 16.875" stroke="#00213D" stroke-width="0.599993" stroke-linecap="round"/>
<path d="M12.4994 15C13.3431 15 15.6494 15 18.1243 15" stroke="#00213D" stroke-width="0.599993" stroke-linecap="round"/>
<path fill-rule="evenodd" clip-rule="evenodd" d="M25.2727 4.56866C25.3856 4.55807 25.4999 4.55265 25.6155 4.55265C27.2731 4.55265 28.6707 5.66574 29.1017 7.18524C29.1469 7.18215 29.1926 7.18057 29.2386 7.18057C30.3301 7.18057 31.2149 8.06541 31.2149 9.15692C31.2149 9.46537 31.1443 9.75731 31.0183 10.0174C31.5286 10.2972 31.8746 10.8395 31.8746 11.4625C31.8746 12.3721 31.1372 13.1095 30.2276 13.1095C29.8093 13.1095 29.4275 12.9536 29.137 12.6967C28.8017 12.9587 28.3796 13.1149 27.9211 13.1149C27.0518 13.1149 26.3135 12.5536 26.049 11.7736C25.9069 11.7906 25.7622 11.7993 25.6155 11.7993C25.2377 11.7993 24.8734 11.7415 24.531 11.6342C24.1557 13.2351 22.7187 14.4272 21.0033 14.4272C19.2524 14.4272 17.7915 13.1852 17.4537 11.5341C17.1361 11.6989 16.7754 11.7921 16.3929 11.7921C16.2131 11.7921 16.038 11.7715 15.8701 11.7325C15.5136 12.5453 14.7018 13.1131 13.7574 13.1131C13.0131 13.1131 12.3512 12.7604 11.9296 12.213C11.6567 12.7453 11.1025 13.1095 10.4632 13.1095C9.55362 13.1095 8.81626 12.3721 8.81626 11.4625C8.81626 11.1792 8.8878 10.9126 9.0138 10.6798C8.88724 10.4192 8.81626 10.1266 8.81626 9.81745C8.81626 9.74191 8.8205 9.66737 8.82875 9.59403C8.04353 9.22636 7.49963 8.42906 7.49963 7.50472C7.49963 6.23129 8.53194 5.19898 9.80535 5.19898C10.4503 5.19898 11.0333 5.46375 11.4518 5.89053C11.7084 5.62885 12.0268 5.42807 12.3835 5.3119C12.2096 4.98768 12.1109 4.61705 12.1109 4.22338C12.1109 2.94995 13.1432 1.91763 14.4166 1.91763C15.4048 1.91763 16.2478 2.53926 16.5758 3.4128C16.9328 3.29521 17.3142 3.23159 17.7105 3.23159C17.9458 3.23159 18.1759 3.25404 18.3988 3.2969C18.9851 2.08548 20.226 1.25 21.6621 1.25C23.5606 1.25 25.118 2.71012 25.2727 4.56866Z" fill="#00213D"/>
</g>
<defs>
<linearGradient id="paint0_linear_30535_2713" x1="20.0003" y1="0" x2="20.0003" y2="40" gradientUnits="userSpaceOnUse">
<stop stop-color="#FFC1C2"/>
<stop offset="1" stop-color="#E97C7C"/>
</linearGradient>
</defs>
</svg>
